mtllib material.mtl
o Default
v -2 -1.1102230246251565e-16 2
v 0 3.3306690738754696e-16 -2.220446049250313e-16
v -2 3.3306690738754696e-16 -2.220446049250313e-16
v 0 -1.1102230246251565e-16 2
v 2 3.3306690738754696e-16 0
v 2 -1.1102230246251565e-16 2
v 2 3.3306690738754696e-16 -2
v 0 3.3306690738754696e-16 -2
v -2 3.3306690738754696e-16 -2
vt 0.4375 1
vt 0.5625 0.875
vt 0.4375 0.875
vt 0.4375 1
vt 0.5625 1
vt 0.5625 0.875
vt 0.4375 0.875
vt 0.5625 1
vt 0.5625 0.875
vt 0.4375 0.875
vt 0.4375 1
vt 0.5625 1
vt 0.5625 0.875
vt 0.4375 1
vt 0.5625 1
vt 0.5625 0.875
vt 0.4375 0.875
vt 0.4375 1
vt 0.4375 0.875
vt 0.5625 1
vt 0.4375 1
vt 0.4375 0.875
vt 0.5625 0.875
vt 0.5625 1
vn 0 1 2.220446049250313e-16
vn 0 1 2.220446049250313e-16
vn 0 1 2.220446049250313e-16
vn 0 1 2.220446049250313e-16
vn 0 1 2.220446049250313e-16
vn 0 1 2.220446049250313e-16
vn -2.465190328815662e-32 1 2.220446049250313e-16
vn -2.465190328815662e-32 1 2.220446049250313e-16
vn -2.465190328815662e-32 1 2.220446049250313e-16
vn 0 1 2.220446049250313e-16
vn 0 1 2.220446049250313e-16
vn 0 1 2.220446049250313e-16
vn 0 1 0
vn 0 1 0
vn 0 1 0
vn 0 1 0
vn 0 1 0
vn 0 1 0
vn 0 1 0
vn 0 1 0
vn 0 1 0
vn 0 1 0
vn 0 1 0
vn 0 1 0
g atck_growl
usemtl 0
f 1/1/1 2/2/2 3/3/3
f 1/4/4 4/5/5 2/6/6
f 4/7/7 5/8/8 2/9/9
f 4/10/10 6/11/11 5/12/12
f 2/13/13 7/14/14 8/15/15
f 2/16/16 5/17/17 7/18/18
f 3/19/19 8/20/20 9/21/21
f 3/22/22 2/23/23 8/24/24
