mtllib material.mtl
o Default
v -0.5 -1.1102230246251565e-16 0.5
v 0.5 1.1102230246251565e-16 -0.5
v -0.5 1.1102230246251565e-16 -0.5
v 0.5 -1.1102230246251565e-16 0.5
vt 0.25 0.7142857313156128
vt 0.5 0.7053571343421936
vt 0.25 0.7053571343421936
vt 0.25 0.7142857313156128
vt 0.5 0.7142857313156128
vt 0.5 0.7053571343421936
vn 0 1 2.220446049250313e-16
vn 0 1 2.220446049250313e-16
vn 0 1 2.220446049250313e-16
vn 0 1 2.220446049250313e-16
vn 0 1 2.220446049250313e-16
vn 0 1 2.220446049250313e-16
g battle_2
usemtl 0
f 1/1/1 2/2/2 3/3/3
f 1/4/4 4/5/5 2/6/6
