mtllib material.mtl
o Default
v 0.5 -1 -0.5
v -0.5 -0.00000762939453125 -0.5000500082969666
v 0.5 -0.00000762939453125 -0.5000500082969666
v -0.5 -1 -0.5
v -0.5 -0.0001076228145393543 0.49994999170303345
v 0.5 -0.0001076228145393543 0.49994999170303345
vt 0.5 0.9732142686843872
vt 0.75 0.9821428656578064
vt 0.5 0.9821428656578064
vt 0.5 0.9732142686843872
vt 0.75 0.9732142686843872
vt 0.75 0.9821428656578064
vt 0.5 0.9910714030265808
vt 0.75 1
vt 0.5 1
vt 0.5 0.9910714030265808
vt 0.75 0.9910714030265808
vt 0.75 1
vn 0 -0.00005000867843995847 -0.999999998749566
vn 0 -0.00005000867843995847 -0.999999998749566
vn 0 -0.00005000867843995847 -0.999999998749566
vn 0 -0.00005000867843995847 -0.999999998749566
vn 0 -0.00005000867843995847 -0.999999998749566
vn 0 -0.00005000867843995847 -0.999999998749566
vn 0 0.999999995000658 0.00009999341950820299
vn 0 0.999999995000658 0.00009999341950820299
vn 0 0.999999995000658 0.00009999341950820299
vn 0 0.999999995000658 0.00009999341950820299
vn 0 0.999999995000658 0.00009999341950820299
vn 0 0.999999995000658 0.00009999341950820299
g grass_cliff_top
usemtl 1
f 1/1/1 2/2/2 3/3/3
f 1/4/4 4/5/5 2/6/6
f 5/7/7 3/8/8 2/9/9
f 5/10/10 6/11/11 3/12/12
