mtllib material.mtl
o Default
v -0.5 -1 0.5
v 0.5 0 0.5
v -0.5 0 0.5
v 0.5 -1 0.5
v -0.5 -1 -0.5
v -0.5 0 -0.5
v 0.5 -0.00038257113192230463 -0.5004500150680542
v 0.5 -0.0004825711075682193 0.4995499849319458
vt 0.5 0.9732142686843872
vt 0.75 0.9821428656578064
vt 0.5 0.9821428656578064
vt 0.5 0.9732142686843872
vt 0.75 0.9732142686843872
vt 0.75 0.9821428656578064
vt 0.5 0.9732142686843872
vt 0.75 0.9821428656578064
vt 0.5 0.9821428656578064
vt 0.5 0.9732142686843872
vt 0.75 0.9732142686843872
vt 0.75 0.9821428656578064
vt 0.5 0.9910714030265808
vt 0.75 1
vt 0.5 1
vt 0.5 0.9910714030265808
vt 0.75 0.9910714030265808
vt 0.75 1
vn 0 0 1
vn 0 0 1
vn 0 0 1
vn 0 0 1
vn 0 0 1
vn 0 0 1
vn -1 0 0
vn -1 0 0
vn -1 0 0
vn -1 0 0
vn -1 0 0
vn -1 0 0
vn 0.000382571103925624 0.9999999268196726 0
vn 0.000382571103925624 0.9999999268196726 0
vn 0.000382571103925624 0.9999999268196726 0
vn 0.0004826160504459324 0.9999998785408702 0.00009999996350000465
vn 0.0004826160504459324 0.9999998785408702 0.00009999996350000465
vn 0.0004826160504459324 0.9999998785408702 0.00009999996350000465
g grass_cliff_bottomleft
usemtl 1
f 1/1/1 2/2/2 3/3/3
f 1/4/4 4/5/5 2/6/6
f 5/7/7 3/8/8 6/9/9
f 5/10/10 1/11/11 3/12/12
f 3/13/13 7/14/14 6/15/15
f 3/16/16 8/17/17 7/18/18
