mtllib material.mtl
o Default
v -0.5 -0.5000852346420288 -0.5000500679016113
v -0.5 0 0.5
v -0.5 0 -0.5
v -0.5 -0.5 0.5
v 0 -2.5871457864923286e-8 0.5
v 0.5 0.00009188448893837631 -0.49994999170303345
v 0 0.00009188448893837631 -0.49994999170303345
v 0.5 -0.5000000596046448 0.5
v 0 -0.5000852346420288 0.49994999170303345
v 0 -0.5 0.5
vt 0.5 0.9732142686843872
vt 0.75 0.9776785969734192
vt 0.5 0.9776785969734192
vt 0.5 0.9732142686843872
vt 0.75 0.9732142686843872
vt 0.75 0.9776785969734192
vt 0.625 0.9910714030265808
vt 0.75 1
vt 0.625 1
vt 0.625 0.9910714030265808
vt 0.75 0.9910714030265808
vt 0.75 1
vt 0.625 0.9732142686843872
vt 0.75 0.9776785969734192
vt 0.625 0.9776785969734192
vt 0.5 0.9910714030265808
vt 0.625 1
vt 0.5 1
vt 0.5 0.9910714030265808
vt 0.625 0.9910714030265808
vt 0.625 1
vt 0.5 0.9732142686843872
vt 0.625 0.9776785969734192
vt 0.5 0.9776785969734192
vt 0.5 0.9732142686843872
vt 0.625 0.9732142686843872
vt 0.625 0.9776785969734192
vn -1 0 0
vn -1 0 0
vn -1 0 0
vn -1 0 0
vn -1 0 0
vn -1 0 0
vn 0 0.9999999957758203 0.0000919149565184366
vn 0 0.9999999957758203 0.0000919149565184366
vn 0 0.9999999957758203 0.0000919149565184366
vn 0.6666493637718289 0.6666493187954168 0.33340262676263144
vn 0.6666493637718289 0.6666493187954168 0.33340262676263144
vn 0.6666493637718289 0.6666493187954168 0.33340262676263144
vn -0.00009999955800191535 -0.00009999955125530822 0.9999999900000892
vn -0.00009999955800191535 -0.00009999955125530822 0.9999999900000892
vn -0.00009999955800191535 -0.00009999955125530822 0.9999999900000892
vn -0.00018376897477371818 0.9999999831144818 0
vn -0.00018376897477371818 0.9999999831144818 0
vn -0.00018376897477371818 0.9999999831144818 0
vn 5.1742915511275134e-8 0.999999995775819 0.00009191495651843648
vn 5.1742915511275134e-8 0.999999995775819 0.00009191495651843648
vn 5.1742915511275134e-8 0.999999995775819 0.00009191495651843648
vn 0 0 1
vn 0 0 1
vn 0 0 1
vn 0 0 1
vn 0 0 1
vn 0 0 1
g grass_ledge_southwest_rampedge
usemtl 1
f 1/1/1 2/2/2 3/3/3
f 1/4/4 4/5/5 2/6/6
f 5/7/7 6/8/8 7/9/9
f 5/10/10 8/11/11 6/12/12
f 9/13/13 8/14/14 5/15/15
f 2/16/16 7/17/17 3/18/18
f 2/19/19 5/20/20 7/21/21
f 4/22/22 5/23/23 2/24/24
f 4/25/25 10/26/26 5/27/27
