mtllib material.mtl
o Default
v -0.5 -0.5000852346420288 0.49994999170303345
v 0.5 0 0.5
v -0.5 0 0.5
v 0.5 -0.5 0.5
v 0.5 0.00009188448893837631 -0.49994999170303345
v -0.5 0.00009188448893837631 -0.49994999170303345
vt 0.5 0.9732142686843872
vt 0.75 0.9776785969734192
vt 0.5 0.9776785969734192
vt 0.5 0.9732142686843872
vt 0.75 0.9732142686843872
vt 0.75 0.9776785969734192
vt 0.5 0.9910714030265808
vt 0.75 1
vt 0.5 1
vt 0.5 0.9910714030265808
vt 0.75 0.9910714030265808
vt 0.75 1
vn 0 -0.00009999954658191512 0.9999999950000452
vn 0 -0.00009999954658191512 0.9999999950000452
vn 0 -0.00009999954658191512 0.9999999950000452
vn -0.00005000829690402162 0 0.9999999987495851
vn -0.00005000829690402162 0 0.9999999987495851
vn -0.00005000829690402162 0 0.9999999987495851
vn 0 0.9999999957781981 0.0000918890837670472
vn 0 0.9999999957781981 0.0000918890837670472
vn 0 0.9999999957781981 0.0000918890837670472
vn 2.5871457755637597e-8 0.9999999957758201 0.00009191495651843657
vn 2.5871457755637597e-8 0.9999999957758201 0.00009191495651843657
vn 2.5871457755637597e-8 0.9999999957758201 0.00009191495651843657
g grass_ledge_south
usemtl 1
f 1/1/1 2/2/2 3/3/3
f 1/4/4 4/5/5 2/6/6
f 3/7/7 5/8/8 6/9/9
f 3/10/10 2/11/11 5/12/12
