mtllib material.mtl
o Default
v -0.5 0 0
v 0.5 1 0
v -0.5 1 0
v 0.5 0 0
v 0.5 0 0.5
v -0.5 0 -0.5
v -0.5 0 0.5
v 0.5 0 -0.5
vt 0 0.9464285969734192
vt 0.25 0.9553571343421936
vt 0 0.9553571343421936
vt 0 0.9464285969734192
vt 0.25 0.9464285969734192
vt 0.25 0.9553571343421936
vt 0.5 0.9821428656578064
vt 0.75 0.9910714030265808
vt 0.5 0.9910714030265808
vt 0.5 0.9821428656578064
vt 0.75 0.9821428656578064
vt 0.75 0.9910714030265808
vn 0 0 1
vn 0 0 1
vn 0 0 1
vn 0 0 1
vn 0 0 1
vn 0 0 1
vn 0 1 0
vn 0 1 0
vn 0 1 0
vn 0 1 0
vn 0 1 0
vn 0 1 0
g pavement_sign
usemtl 1
f 1/1/1 2/2/2 3/3/3
f 1/4/4 4/5/5 2/6/6
f 5/7/7 6/8/8 7/9/9
f 5/10/10 8/11/11 6/12/12
