mtllib material.mtl
o Default
v -0.5 -0.0 0.5
v 0.5 0.0 -0.5
v -0.5 0.0 -0.5
v 0.5 -0.0 0.5
vt 0.5 0.9821428656578064
vt 0.75 0.9910714030265808
vt 0.5 0.9910714030265808
vt 0.5 0.9821428656578064
vt 0.75 0.9821428656578064
vt 0.75 0.9910714030265808
vn -0.000006654598076469442 0.9999999949778584 0.00009999999788106806
vn -0.000006654598076469442 0.9999999949778584 0.00009999999788106806
vn -0.000006654598076469442 0.9999999949778584 0.00009999999788106806
vn -0.000006654598076469442 0.9999999949778584 0.00009999999788106806
vn -0.000006654598076469442 0.9999999949778584 0.00009999999788106806
vn -0.000006654598076469442 0.9999999949778584 0.00009999999788106806
g pavement_1
usemtl 1
f 1/1/1 2/2/2 3/3/3
f 1/4/4 4/5/5 2/6/6
