mtllib material.mtl
o Default
v -0.5 -5.551115123125783e-17 -0.5
v -0.5 1 0.5
v -0.5 1 -0.5
v -0.5 -5.551115123125783e-17 0.5
v 0 1 1
v 0.5 1 -0.5
v 0 1 -0.5
v 0.5 1 1
v 0.5 1 0.5
v 0.5 0 0.5
v -1 1 1
v -1 1 -0.5
vt 0.75 0.9196428656578064
vt 1 0.9285714030265808
vt 0.75 0.9285714030265808
vt 0.75 0.9196428656578064
vt 1 0.9196428656578064
vt 1 0.9285714030265808
vt 0.375 0.8928571343421936
vt 0.5 0.9017857313156128
vt 0.375 0.9017857313156128
vt 0.375 0.8928571343421936
vt 0.5 0.8928571343421936
vt 0.5 0.9017857313156128
vt 0 0.9196428656578064
vt 0.25 0.9285714030265808
vt 0 0.9285714030265808
vt 0 0.9196428656578064
vt 0.25 0.9196428656578064
vt 0.25 0.9285714030265808
vt 0 0.8928571343421936
vt 0.25 0.9017857313156128
vt 0 0.9017857313156128
vt 0 0.8928571343421936
vt 0.25 0.8928571343421936
vt 0.25 0.9017857313156128
vn -1 0 0
vn -1 0 0
vn -1 0 0
vn -1 0 0
vn -1 0 0
vn -1 0 0
vn 0 1 0
vn 0 1 0
vn 0 1 0
vn 0 1 0
vn 0 1 0
vn 0 1 0
vn 0 0 1
vn 0 0 1
vn 0 0 1
vn 0 0 1
vn 0 0 1
vn 0 0 1
vn 0 1 0
vn 0 1 0
vn 0 1 0
vn 0 1 0
vn 0 1 0
vn 0 1 0
g smallhouse_bottomleft
usemtl 1
f 1/1/1 2/2/2 3/3/3
f 1/4/4 4/5/5 2/6/6
f 5/7/7 6/8/8 7/9/9
f 5/10/10 8/11/11 6/12/12
f 4/13/13 9/14/14 2/15/15
f 4/16/16 10/17/17 9/18/18
f 11/19/19 7/20/20 12/21/21
f 11/22/22 5/23/23 7/24/24
