mtllib material.mtl
o Default
v -1 1 0.5
v 0 1 -1
v -1 1 -1
v 0 1 0.5
v -0.5 0 -0.5
v -0.5 1 0.5
v -0.5 1 -0.5
v -0.5 0 0.5
v 0.5 0 -0.5
v 0.5 1 -0.5
v 0.5 1 -1
v 0.5 1 0.5
vt 0 0.9017857313156128
vt 0.25 0.9107142686843872
vt 0 0.9107142686843872
vt 0 0.9017857313156128
vt 0.25 0.9017857313156128
vt 0.25 0.9107142686843872
vt 0 0.9196428656578064
vt 0.25 0.9285714030265808
vt 0 0.9285714030265808
vt 0 0.9196428656578064
vt 0.25 0.9196428656578064
vt 0.25 0.9285714030265808
vt 0.75 0.9196428656578064
vt 1 0.9285714030265808
vt 0.75 0.9285714030265808
vt 0.75 0.9196428656578064
vt 1 0.9196428656578064
vt 1 0.9285714030265808
vt 0.375 0.9017857313156128
vt 0.5 0.9107142686843872
vt 0.375 0.9107142686843872
vt 0.375 0.9017857313156128
vt 0.5 0.9017857313156128
vt 0.5 0.9107142686843872
vn 0 1 0
vn 0 1 0
vn 0 1 0
vn 0 1 0
vn 0 1 0
vn 0 1 0
vn -1 0 0
vn -1 0 0
vn -1 0 0
vn -1 0 0
vn -1 0 0
vn -1 0 0
vn 0 0 -1
vn 0 0 -1
vn 0 0 -1
vn 0 0 -1
vn 0 0 -1
vn 0 0 -1
vn 0 1 0
vn 0 1 0
vn 0 1 0
vn 0 1 0
vn 0 1 0
vn 0 1 0
g smallhouse_topleft
usemtl 1
f 1/1/1 2/2/2 3/3/3
f 1/4/4 4/5/5 2/6/6
f 5/7/7 6/8/8 7/9/9
f 5/10/10 8/11/11 6/12/12
f 9/13/13 7/14/14 10/15/15
f 9/16/16 5/17/17 7/18/18
f 4/19/19 11/20/20 2/21/21
f 4/22/22 12/23/23 11/24/24
