mtllib material.mtl
o Default
v 0.5 0 0.5
v 0.5 1 -0.5
v 0.5 1 0.5
v 0.5 0 -0.5
v -0.5 1 -0.5
v -0.5 0 -0.5
v 0 1 0.5
v 1 1 -1
v 0 1 -1
v 1 1 0.5
v -0.5 1 0.5
v -0.5 1 -1
vt 0.75 0.9196428656578064
vt 1 0.9285714030265808
vt 0.75 0.9285714030265808
vt 0.75 0.9196428656578064
vt 1 0.9196428656578064
vt 1 0.9285714030265808
vt 0 0.9196428656578064
vt 0.25 0.9285714030265808
vt 0 0.9285714030265808
vt 0 0.9196428656578064
vt 0.25 0.9196428656578064
vt 0.25 0.9285714030265808
vt 0.5 0.9017857313156128
vt 0.75 0.9107142686843872
vt 0.5 0.9107142686843872
vt 0.5 0.9017857313156128
vt 0.75 0.9017857313156128
vt 0.75 0.9107142686843872
vt 0.375 0.9017857313156128
vt 0.5 0.9107142686843872
vt 0.375 0.9107142686843872
vt 0.375 0.9017857313156128
vt 0.5 0.9017857313156128
vt 0.5 0.9107142686843872
vn 1 0 0
vn 1 0 0
vn 1 0 0
vn 1 0 0
vn 1 0 0
vn 1 0 0
vn 0 0 -1
vn 0 0 -1
vn 0 0 -1
vn 0 0 -1
vn 0 0 -1
vn 0 0 -1
vn 0 1 0
vn 0 1 0
vn 0 1 0
vn 0 1 0
vn 0 1 0
vn 0 1 0
vn 0 1 0
vn 0 1 0
vn 0 1 0
vn 0 1 0
vn 0 1 0
vn 0 1 0
g smallhouse_topright
usemtl 1
f 1/1/1 2/2/2 3/3/3
f 1/4/4 4/5/5 2/6/6
f 4/7/7 5/8/8 2/9/9
f 4/10/10 6/11/11 5/12/12
f 7/13/13 8/14/14 9/15/15
f 7/16/16 10/17/17 8/18/18
f 11/19/19 9/20/20 12/21/21
f 11/22/22 7/23/23 9/24/24
