mtllib material.mtl
o Default
v 0 0 1
v 1 0.5 0.75
v 0 0.5 0.75
v 1 0 1
v 1 0.5 -0.25
v 0 0.5 -0.25
v 1 1.1102230246251565e-16 0
v 0 1.1102230246251565e-16 0
vt 0 0.71875
vt 0.25 0.7232142686843872
vt 0 0.7232142686843872
vt 0 0.71875
vt 0.25 0.71875
vt 0.25 0.7232142686843872
vt 0 0.7410714030265808
vt 0.25 0.75
vt 0 0.75
vt 0 0.7410714030265808
vt 0.25 0.7410714030265808
vt 0.25 0.75
vt 0.25 0.75
vt 0.5 0.7589285969734192
vt 0.25 0.7589285969734192
vt 0.25 0.75
vt 0.5 0.75
vt 0.5 0.7589285969734192
vn 0 0.4472135954999579 0.8944271909999159
vn 0 0.4472135954999579 0.8944271909999159
vn 0 0.4472135954999579 0.8944271909999159
vn 0 0.4472135954999579 0.8944271909999159
vn 0 0.4472135954999579 0.8944271909999159
vn 0 0.4472135954999579 0.8944271909999159
vn 0 1 0
vn 0 1 0
vn 0 1 0
vn 0 1 0
vn 0 1 0
vn 0 1 0
vn 0 1 1.1102230246251565e-16
vn 0 1 1.1102230246251565e-16
vn 0 1 1.1102230246251565e-16
vn 1.1102230246251565e-16 1 2.220446049250313e-16
vn 1.1102230246251565e-16 1 2.220446049250313e-16
vn 1.1102230246251565e-16 1 2.220446049250313e-16
g tile_lab_table_1
usemtl 1
f 1/1/1 2/2/2 3/3/3
f 1/4/4 4/5/5 2/6/6
f 3/7/7 5/8/8 6/9/9
f 3/10/10 2/11/11 5/12/12
f 1/13/13 7/14/14 8/15/15
f 1/16/16 4/17/17 7/18/18
