mtllib material.mtl
o Default
v 0 0 1
v 1 0 0
v 0 0 0
v 1 0 1
v 1 -0.5 -1
v 0 -0.5 -1
v 0 1 -0.5
v 1 2 -1
v 0 2 -1
v 1 1 -0.5
v 1 1 0.5
v 1 2 0
v 1 0 -1
v 1 1 -1.5
v 1 -1 -0.5
v 1 -1 0.5
v 0 -1 0.5
v 0 5.551115123125783e-17 -1
v 0 -1 -0.5
v 0 1 -1.5
v 0 0 -1.5
v 1 0 -1.5
vt 0.5 0.8660714030265808
vt 0.75 0.875
vt 0.5 0.875
vt 0.5 0.8660714030265808
vt 0.75 0.8660714030265808
vt 0.75 0.875
vt 0 0.875
vt 0.25 0.8839285969734192
vt 0 0.8839285969734192
vt 0 0.875
vt 0.25 0.875
vt 0.25 0.8839285969734192
vt 0.75 0.8482142686843872
vt 1 0.8571428656578064
vt 0.75 0.8571428656578064
vt 0.75 0.8482142686843872
vt 1 0.8482142686843872
vt 1 0.8571428656578064
vt 0.75 0.8482142686843872
vt 1 0.8571428656578064
vt 0.75 0.8571428656578064
vt 0.75 0.8482142686843872
vt 1 0.8482142686843872
vt 1 0.8571428656578064
vt 0.75 0.8482142686843872
vt 1 0.8571428656578064
vt 0.75 0.8571428656578064
vt 0.75 0.8482142686843872
vt 1 0.8482142686843872
vt 1 0.8571428656578064
vt 0.75 0.8482142686843872
vt 1 0.8571428656578064
vt 0.75 0.8571428656578064
vt 0.75 0.8482142686843872
vt 1 0.8482142686843872
vt 1 0.8571428656578064
vt 0.75 0.8482142686843872
vt 1 0.8571428656578064
vt 0.75 0.8571428656578064
vt 0.75 0.8482142686843872
vt 1 0.8482142686843872
vt 1 0.8571428656578064
vt 0.75 0.8482142686843872
vt 1 0.8571428656578064
vt 0.75 0.8571428656578064
vt 0.75 0.8482142686843872
vt 1 0.8482142686843872
vt 1 0.8571428656578064
vt 0.75 0.8482142686843872
vt 1 0.8571428656578064
vt 0.75 0.8571428656578064
vt 0.75 0.8482142686843872
vt 1 0.8482142686843872
vt 1 0.8571428656578064
vt 0.75 0.8482142686843872
vt 1 0.8571428656578064
vt 0.75 0.8571428656578064
vt 0.75 0.8482142686843872
vt 1 0.8482142686843872
vt 1 0.8571428656578064
vn 0 1 0
vn 0 1 0
vn 0 1 0
vn 0 1 0
vn 0 1 0
vn 0 1 0
vn 0 0.8944271909999159 -0.4472135954999579
vn 0 0.8944271909999159 -0.4472135954999579
vn 0 0.8944271909999159 -0.4472135954999579
vn 0 0.8944271909999159 -0.4472135954999579
vn 0 0.8944271909999159 -0.4472135954999579
vn 0 0.8944271909999159 -0.4472135954999579
vn 0 0.4472135954999579 0.8944271909999159
vn 0 0.4472135954999579 0.8944271909999159
vn 0 0.4472135954999579 0.8944271909999159
vn 0 0.4472135954999579 0.8944271909999159
vn 0 0.4472135954999579 0.8944271909999159
vn 0 0.4472135954999579 0.8944271909999159
vn -1 0 0
vn -1 0 0
vn -1 0 0
vn -1 0 0
vn -1 0 0
vn -1 0 0
vn -1 0 0
vn -1 0 0
vn -1 0 0
vn -1 0 0
vn -1 0 0
vn -1 0 0
vn -1 0 0
vn -1 0 0
vn -1 0 0
vn -1 0 0
vn -1 0 0
vn -1 0 0
vn -1 0 0
vn -1 0 0
vn -1 0 0
vn -1 0 0
vn -1 0 0
vn -1 0 0
vn 1 0 0
vn 1 0 0
vn 1 0 0
vn 1 0 0
vn 1 0 0
vn 1 0 0
vn 1 0 0
vn 1 0 0
vn 1 0 0
vn 1 0 0
vn 1 0 0
vn 1 0 0
vn 0 -0.7071067811865475 0.7071067811865475
vn 0 -0.7071067811865475 0.7071067811865475
vn 0 -0.7071067811865475 0.7071067811865475
vn 0 -0.7071067811865475 0.7071067811865475
vn 0 -0.7071067811865475 0.7071067811865475
vn 0 -0.7071067811865475 0.7071067811865475
g tile_indoors_wall_4
usemtl 1
f 1/1/1 2/2/2 3/3/3
f 1/4/4 4/5/5 2/6/6
f 3/7/7 5/8/8 6/9/9
f 3/10/10 2/11/11 5/12/12
f 7/13/13 8/14/14 9/15/15
f 7/16/16 10/17/17 8/18/18
f 2/19/19 11/20/20 10/21/21
f 2/22/22 4/23/23 11/24/24
f 10/25/25 12/26/26 8/27/27
f 10/28/28 11/29/29 12/30/30
f 13/31/31 10/32/32 14/33/33
f 13/34/34 2/35/35 10/36/36
f 15/37/37 2/38/38 13/39/39
f 15/40/40 16/41/41 2/42/42
f 17/43/43 18/44/44 3/45/45
f 17/46/46 19/47/47 18/48/48
f 3/49/49 20/50/50 7/51/51
f 3/52/52 18/53/53 20/54/54
f 21/55/55 10/56/56 7/57/57
f 21/58/58 22/59/59 10/60/60
