mtllib material.mtl
o Default
v 0 0 1
v 1 1 0.5
v 0 1 0.5
v 1 0 1
v 1 2 0
v 0 2 0
v 1 1 -0.5
v 1 0 0
v 1 2 -1
v 0.5 2 0.5
v 1.5 2 -0.5
v 0.5 2 -0.5
v 1.5 2 0.5
v 1.5 2 -1
v 0.5 2 -1
v 0 2 0.5
v 0 2 -0.5
v 0 2 -1
vt 0.75 0.9196428656578064
vt 1 0.9285714030265808
vt 0.75 0.9285714030265808
vt 0.75 0.9196428656578064
vt 1 0.9196428656578064
vt 1 0.9285714030265808
vt 0.25 0.9107142686843872
vt 0.5 0.9196428656578064
vt 0.25 0.9196428656578064
vt 0.25 0.9107142686843872
vt 0.5 0.9107142686843872
vt 0.5 0.9196428656578064
vt 0 0.9196428656578064
vt 0.25 0.9285714030265808
vt 0 0.9285714030265808
vt 0 0.9196428656578064
vt 0.25 0.9196428656578064
vt 0.25 0.9285714030265808
vt 0 0.9285714030265808
vt 0.25 0.9375
vt 0 0.9375
vt 0 0.9285714030265808
vt 0.25 0.9285714030265808
vt 0.25 0.9375
vt 0.5 0.8928571343421936
vt 0.75 0.9017857313156128
vt 0.5 0.9017857313156128
vt 0.5 0.8928571343421936
vt 0.75 0.8928571343421936
vt 0.75 0.9017857313156128
vt 0.75 0.9017857313156128
vt 1 0.90625
vt 0.75 0.90625
vt 0.75 0.9017857313156128
vt 1 0.9017857313156128
vt 1 0.90625
vt 0.375 0.8928571343421936
vt 0.5 0.9017857313156128
vt 0.375 0.9017857313156128
vt 0.375 0.8928571343421936
vt 0.5 0.8928571343421936
vt 0.5 0.9017857313156128
vt 0.875 0.9107142686843872
vt 1 0.9151785969734192
vt 0.875 0.9151785969734192
vt 0.875 0.9107142686843872
vt 1 0.9107142686843872
vt 1 0.9151785969734192
vn 0 0.4472135954999579 0.8944271909999159
vn 0 0.4472135954999579 0.8944271909999159
vn 0 0.4472135954999579 0.8944271909999159
vn 0 0.4472135954999579 0.8944271909999159
vn 0 0.4472135954999579 0.8944271909999159
vn 0 0.4472135954999579 0.8944271909999159
vn 0 0.4472135954999579 0.8944271909999159
vn 0 0.4472135954999579 0.8944271909999159
vn 0 0.4472135954999579 0.8944271909999159
vn 0 0.4472135954999579 0.8944271909999159
vn 0 0.4472135954999579 0.8944271909999159
vn 0 0.4472135954999579 0.8944271909999159
vn 1 0 0
vn 1 0 0
vn 1 0 0
vn 1 0 0
vn 1 0 0
vn 1 0 0
vn 1 0 0
vn 1 0 0
vn 1 0 0
vn 1 0 0
vn 1 0 0
vn 1 0 0
vn 0 1 0
vn 0 1 0
vn 0 1 0
vn 0 1 0
vn 0 1 0
vn 0 1 0
vn 0 1 0
vn 0 1 0
vn 0 1 0
vn 0 1 0
vn 0 1 0
vn 0 1 0
vn 0 1 0
vn 0 1 0
vn 0 1 0
vn 0 1 0
vn 0 1 0
vn 0 1 0
vn 0 1 0
vn 0 1 0
vn 0 1 0
vn 0 1 0
vn 0 1 0
vn 0 1 0
g tile_lab_12
usemtl 1
f 1/1/1 2/2/2 3/3/3
f 1/4/4 4/5/5 2/6/6
f 3/7/7 5/8/8 6/9/9
f 3/10/10 2/11/11 5/12/12
f 4/13/13 7/14/14 2/15/15
f 4/16/16 8/17/17 7/18/18
f 2/19/19 9/20/20 5/21/21
f 2/22/22 7/23/23 9/24/24
f 10/25/25 11/26/26 12/27/27
f 10/28/28 13/29/29 11/30/30
f 12/31/31 14/32/32 15/33/33
f 12/34/34 11/35/35 14/36/36
f 16/37/37 12/38/38 17/39/39
f 16/40/40 10/41/41 12/42/42
f 17/43/43 15/44/44 18/45/45
f 17/46/46 12/47/47 15/48/48
