mtllib material.mtl
o Default
v 0 -1.1102230246251565e-16 1
v 1 -1.1102230246251565e-16 0
v 0 -1.1102230246251565e-16 0
v 1 -1.1102230246251565e-16 1
v 0 0 0.5
v 1 0.75 0
v 0 0.75 0
v 1 0 0.5
vt 0.25 0.75
vt 0.5 0.7589285969734192
vt 0.25 0.7589285969734192
vt 0.25 0.75
vt 0.5 0.75
vt 0.5 0.7589285969734192
vt 0.25 0.7232142686843872
vt 0.5 0.7276785969734192
vt 0.25 0.7276785969734192
vt 0.25 0.7232142686843872
vt 0.5 0.7232142686843872
vt 0.5 0.7276785969734192
vn 0 1 0
vn 0 1 0
vn 0 1 0
vn 0 1 0
vn 0 1 0
vn 0 1 0
vn 0 0.5547001962252291 0.8320502943378437
vn 0 0.5547001962252291 0.8320502943378437
vn 0 0.5547001962252291 0.8320502943378437
vn 0 0.5547001962252291 0.8320502943378437
vn 0 0.5547001962252291 0.8320502943378437
vn 0 0.5547001962252291 0.8320502943378437
g tile_healer_4
usemtl 1
f 1/1/1 2/2/2 3/3/3
f 1/4/4 4/5/5 2/6/6
f 5/7/7 6/8/8 7/9/9
f 5/10/10 8/11/11 6/12/12
