mtllib material.mtl
o Default
v 1 0 0
v 0 1 -0.5
v 1 1 -0.5
v 0 0 0
v 0 1 0.5
v 1 1 0.5
v 0 0 1
vt 0.75 0.9196428656578064
vt 1 0.9285714030265808
vt 0.75 0.9285714030265808
vt 0.75 0.9196428656578064
vt 1 0.9196428656578064
vt 1 0.9285714030265808
vt 0 0.9017857313156128
vt 0.25 0.9107142686843872
vt 0 0.9107142686843872
vt 0 0.9017857313156128
vt 0.25 0.9017857313156128
vt 0.25 0.9107142686843872
vt 0 0.9196428656578064
vt 0.25 0.9285714030265808
vt 0 0.9285714030265808
vt 0 0.9196428656578064
vt 0.25 0.9196428656578064
vt 0.25 0.9285714030265808
vn 0 -0.4472135954999579 -0.8944271909999159
vn 0 -0.4472135954999579 -0.8944271909999159
vn 0 -0.4472135954999579 -0.8944271909999159
vn 0 -0.4472135954999579 -0.8944271909999159
vn 0 -0.4472135954999579 -0.8944271909999159
vn 0 -0.4472135954999579 -0.8944271909999159
vn 0 1 0
vn 0 1 0
vn 0 1 0
vn 0 1 0
vn 0 1 0
vn 0 1 0
vn -1 0 0
vn -1 0 0
vn -1 0 0
vn -1 0 0
vn -1 0 0
vn -1 0 0
g tile_smallhouse_1
usemtl 1
f 1/1/1 2/2/2 3/3/3
f 1/4/4 4/5/5 2/6/6
f 5/7/7 3/8/8 2/9/9
f 5/10/10 6/11/11 3/12/12
f 4/13/13 5/14/14 2/15/15
f 4/16/16 7/17/17 5/18/18
