mtllib material.mtl
o Default
v 1 1 -0.5
v 1 2 0
v 1 2 -1
v 1 1 0.5
v 1 0 0
v 1 0 1
v 0 0 0.5
v 1 1 0
v 0 1 0
v 1 0 0.5
v 0 0 -4.440892098500626e-16
v 0 1.5 -0.25
v 0 1.5 -0.75
v 1 1.5 -0.75
v 1 1.5 -0.25
v 0 1 -0.5
v 0 2 -1
v 0 -1.1102230246251565e-16 1
vt 0.25 0.7589285969734192
vt 0.5 0.7678571343421936
vt 0.25 0.7678571343421936
vt 0.25 0.7589285969734192
vt 0.5 0.7589285969734192
vt 0.5 0.7678571343421936
vt 0.75 0.75
vt 1 0.7589285969734192
vt 0.75 0.7589285969734192
vt 0.75 0.75
vt 1 0.75
vt 1 0.7589285969734192
vt 0.5 0.8303571343421936
vt 0.75 0.8392857313156128
vt 0.5 0.8392857313156128
vt 0.5 0.8303571343421936
vt 0.75 0.8303571343421936
vt 0.75 0.8392857313156128
vt 0.75 0.8035714030265808
vt 1 0.8125
vt 0.75 0.8125
vt 0.75 0.8035714030265808
vt 1 0.8035714030265808
vt 1 0.8125
vt 0.5 0.84375
vt 0.75 0.8482142686843872
vt 0.5 0.8482142686843872
vt 0.5 0.84375
vt 0.75 0.84375
vt 0.75 0.8482142686843872
vt 0.5 0.8392857313156128
vt 0.75 0.84375
vt 0.5 0.84375
vt 0.5 0.8392857313156128
vt 0.75 0.8392857313156128
vt 0.75 0.84375
vt 0.25 0.7589285969734192
vt 0.5 0.7678571343421936
vt 0.25 0.7678571343421936
vt 0.25 0.7589285969734192
vt 0.5 0.7589285969734192
vt 0.5 0.7678571343421936
vt 0.25 0.75
vt 0.5 0.7589285969734192
vt 0.25 0.7589285969734192
vt 0.25 0.75
vt 0.5 0.75
vt 0.5 0.7589285969734192
vn -1 0 0
vn -1 0 0
vn -1 0 0
vn -1 0 0
vn -1 0 0
vn -1 0 0
vn -1 0 0
vn -1 0 0
vn -1 0 0
vn -1 0 0
vn -1 0 0
vn -1 0 0
vn 0 0.4472135954999579 0.8944271909999159
vn 0 0.4472135954999579 0.8944271909999159
vn 0 0.4472135954999579 0.8944271909999159
vn 0 0.4472135954999579 0.8944271909999159
vn 0 0.4472135954999579 0.8944271909999159
vn 0 0.4472135954999579 0.8944271909999159
vn -1 0 0
vn -1 0 0
vn -1 0 0
vn -1 0 0
vn -1 0 0
vn -1 0 0
vn 0 1 0
vn 0 1 0
vn 0 1 0
vn 0 1 0
vn 0 1 0
vn 0 1 0
vn 0 0.4472135954999579 0.8944271909999159
vn 0 0.4472135954999579 0.8944271909999159
vn 0 0.4472135954999579 0.8944271909999159
vn 0 0.4472135954999579 0.8944271909999159
vn 0 0.4472135954999579 0.8944271909999159
vn 0 0.4472135954999579 0.8944271909999159
vn 0 0.4472135954999579 0.8944271909999159
vn 0 0.4472135954999579 0.8944271909999159
vn 0 0.4472135954999579 0.8944271909999159
vn 0 0.4472135954999579 0.8944271909999159
vn 0 0.4472135954999579 0.8944271909999159
vn 0 0.4472135954999579 0.8944271909999159
vn -4.9303806576313216e-32 1 1.110223024625156e-16
vn -4.9303806576313216e-32 1 1.110223024625156e-16
vn -4.9303806576313216e-32 1 1.110223024625156e-16
vn 0 1 1.1102230246251565e-16
vn 0 1 1.1102230246251565e-16
vn 0 1 1.1102230246251565e-16
g tile_lab_bookshelf_5
usemtl 1
f 1/1/1 2/2/2 3/3/3
f 1/4/4 4/5/5 2/6/6
f 5/7/7 4/8/8 1/9/9
f 5/10/10 6/11/11 4/12/12
f 7/13/13 8/14/14 9/15/15
f 7/16/16 10/17/17 8/18/18
f 11/19/19 12/20/20 13/21/21
f 11/22/22 7/23/23 12/24/24
f 12/25/25 14/26/26 13/27/27
f 12/28/28 15/29/29 14/30/30
f 9/31/31 15/32/32 12/33/33
f 9/34/34 8/35/35 15/36/36
f 16/37/37 3/38/38 17/39/39
f 16/40/40 1/41/41 3/42/42
f 18/43/43 5/44/44 11/45/45
f 18/46/46 6/47/47 5/48/48
