mtllib material.mtl
o Default
v 0 -0.5 0.5
v 0.5 -0.5 0
v 0 0.5 0
v 0 -1.1102230246251565e-16 1
v 1 1.1102230246251565e-16 0
v 0 1.1102230246251565e-16 0
v 1 -1.1102230246251565e-16 1
vt 0.5 0.9732142686843872
vt 0.75 0.9732142686843872
vt 0.5 0.9821428656578064
vt 0 0.9553571343421936
vt 0.25 0.9642857313156128
vt 0 0.9642857313156128
vt 0 0.9553571343421936
vt 0.25 0.9553571343421936
vt 0.25 0.9642857313156128
vn 0.6666666666666666 0.3333333333333333 0.6666666666666666
vn 0.6666666666666666 0.3333333333333333 0.6666666666666666
vn 0.6666666666666666 0.3333333333333333 0.6666666666666666
vn 0 1 2.220446049250313e-16
vn 0 1 2.220446049250313e-16
vn 0 1 2.220446049250313e-16
vn 0 1 2.220446049250313e-16
vn 0 1 2.220446049250313e-16
vn 0 1 2.220446049250313e-16
g tile_water_10
usemtl 1
f 1/1/1 2/2/2 3/3/3
f 4/4/4 5/5/5 6/6/6
f 4/7/7 7/8/8 5/9/9
