mtllib material.mtl
o Default
v 0 0 0
v 1 1 -0.5
v 0 1 -0.5
v 1 0 0
v 0 -0.25 1
v 1 0.5 0.5
v 0 0.5 0.5
v 1 -0.25 1
v 1 0.5 -0.5
v 0 0.5 -0.5
v 0 1 0
v 1 1.25 -0.5
v 0 1.25 -0.5
v 1 1 0
v 0 0.5 0.25
v 1 0.5 0.25
v 0 0.5 0
v 0 1 -0.25
v 1 1 -0.25
v 1 0.5 0
v 0 -0 1
v 1 -0 1
v 1 2 -1
v 0 2 -1
vt 0.75 0.75
vt 1 0.7589285969734192
vt 0.75 0.7589285969734192
vt 0.75 0.75
vt 1 0.75
vt 1 0.7589285969734192
vt 0.75 0.8616071343421936
vt 1 0.8660714030265808
vt 0.75 0.8660714030265808
vt 0.75 0.8616071343421936
vt 1 0.8616071343421936
vt 1 0.8660714030265808
vt 0.25 0.8482142686843872
vt 0.5 0.8571428656578064
vt 0.25 0.8571428656578064
vt 0.25 0.8482142686843872
vt 0.5 0.8482142686843872
vt 0.5 0.8571428656578064
vt 0.25 0.8348214030265808
vt 0.5 0.8392857313156128
vt 0.25 0.8392857313156128
vt 0.25 0.8348214030265808
vt 0.5 0.8348214030265808
vt 0.5 0.8392857313156128
vt 0.25 0.8303571343421936
vt 0.5 0.8348214626312256
vt 0.25 0.8348214626312256
vt 0.25 0.8303571343421936
vt 0.5 0.8303571343421936
vt 0.5 0.8348214626312256
vt 0.75 0.8035714030265808
vt 1 0.8125
vt 0.75 0.8125
vt 0.75 0.8035714030265808
vt 1 0.8035714030265808
vt 1 0.8125
vt 0.75 0.8035714030265808
vt 1 0.8125
vt 0.75 0.8125
vt 0.75 0.8035714030265808
vt 1 0.8035714030265808
vt 1 0.8125
vt 0.25 0.75
vt 0.5 0.7589285969734192
vt 0.25 0.7589285969734192
vt 0.25 0.75
vt 0.5 0.75
vt 0.5 0.7589285969734192
vt 0.25 0.7589285969734192
vt 0.5 0.7678571343421936
vt 0.25 0.7678571343421936
vt 0.25 0.7589285969734192
vt 0.5 0.7589285969734192
vt 0.5 0.7678571343421936
vn 0 0.4472135954999579 0.8944271909999159
vn 0 0.4472135954999579 0.8944271909999159
vn 0 0.4472135954999579 0.8944271909999159
vn 0 0.4472135954999579 0.8944271909999159
vn 0 0.4472135954999579 0.8944271909999159
vn 0 0.4472135954999579 0.8944271909999159
vn 0 0.5547001962252291 0.8320502943378437
vn 0 0.5547001962252291 0.8320502943378437
vn 0 0.5547001962252291 0.8320502943378437
vn 0 0.5547001962252291 0.8320502943378437
vn 0 0.5547001962252291 0.8320502943378437
vn 0 0.5547001962252291 0.8320502943378437
vn 0 1 0
vn 0 1 0
vn 0 1 0
vn 0 1 0
vn 0 1 0
vn 0 1 0
vn 0 0.8944271909999159 0.4472135954999579
vn 0 0.8944271909999159 0.4472135954999579
vn 0 0.8944271909999159 0.4472135954999579
vn 0 0.8944271909999159 0.4472135954999579
vn 0 0.8944271909999159 0.4472135954999579
vn 0 0.8944271909999159 0.4472135954999579
vn 0 0.4472135954999579 0.8944271909999159
vn 0 0.4472135954999579 0.8944271909999159
vn 0 0.4472135954999579 0.8944271909999159
vn 0 0.4472135954999579 0.8944271909999159
vn 0 0.4472135954999579 0.8944271909999159
vn 0 0.4472135954999579 0.8944271909999159
vn -1 0 0
vn -1 0 0
vn -1 0 0
vn -1 0 0
vn -1 0 0
vn -1 0 0
vn 1 0 0
vn 1 0 0
vn 1 0 0
vn 1 0 0
vn 1 0 0
vn 1 0 0
vn 0 1 1.1102230246251565e-16
vn 0 1 1.1102230246251565e-16
vn 0 1 1.1102230246251565e-16
vn 0 1 1.1102230246251565e-16
vn 0 1 1.1102230246251565e-16
vn 0 1 1.1102230246251565e-16
vn 0 0.4472135954999579 0.8944271909999159
vn 0 0.4472135954999579 0.8944271909999159
vn 0 0.4472135954999579 0.8944271909999159
vn 0 0.4472135954999579 0.8944271909999159
vn 0 0.4472135954999579 0.8944271909999159
vn 0 0.4472135954999579 0.8944271909999159
g tile_indoors_radio_2
usemtl 1
f 1/1/1 2/2/2 3/3/3
f 1/4/4 4/5/5 2/6/6
f 5/7/7 6/8/8 7/9/9
f 5/10/10 8/11/11 6/12/12
f 7/13/13 9/14/14 10/15/15
f 7/16/16 6/17/17 9/18/18
f 11/19/19 12/20/20 13/21/21
f 11/22/22 14/23/23 12/24/24
f 15/25/25 14/26/26 11/27/27
f 15/28/28 16/29/29 14/30/30
f 17/31/31 11/32/32 18/33/33
f 17/34/34 15/35/35 11/36/36
f 16/37/37 19/38/38 14/39/39
f 16/40/40 20/41/41 19/42/42
f 21/43/43 4/44/44 1/45/45
f 21/46/46 22/47/47 4/48/48
f 3/49/49 23/50/50 24/51/51
f 3/52/52 2/53/53 23/54/54
