{"asset":{"version":"2.0","generator":"THREE.GLTFExporter"},"scenes":[{"name":"default","nodes":[0]}],"scene":0,"nodes":[{"name":"tile_uvani_test","extras":{"data":{"name":"tile_uvani_test","points":[{"name":"Origin","pos":{"x":0,"y":0,"z":0}}],"billboard":{"enabled":false,"y":false},"custom":[],"instances":[{"name":"tile_uvani_test","uuid":"F2D7579E-DBCF-4A0D-887A-3B2A546F2B93","parent":null,"pos":{"x":-1,"y":0,"z":2},"rot":{"x":0,"y":0,"z":0,"order":"XYZ"},"sca":{"x":1,"y":1,"z":1},"custom":[]}]}},"mesh":0}],"bufferViews":[{"buffer":0,"byteOffset":0,"byteLength":144,"target":34962,"byteStride":12},{"buffer":0,"byteOffset":144,"byteLength":144,"target":34962,"byteStride":12},{"buffer":0,"byteOffset":288,"byteLength":96,"target":34962,"byteStride":8},{"buffer":0,"byteOffset":384,"byteLength":96,"target":34962,"byteStride":8},{"buffer":0,"byteOffset":480,"byteLength":36,"target":34963}],"buffers":[{"byteLength":516,"uri":"data:application/octet-stream;base64,"}],"accessors":[{"bufferView":0,"componentType":5126,"count":12,"max":[33,0.5,1],"min":[32,-0.5,0],"type":"VEC3"},{"bufferView":1,"componentType":5126,"count":12,"max":[0.8944271802902222,1,2.220446049250313e-16],"min":[0,0.4472135901451111,-0.8944271802902222],"type":"VEC3"},{"bufferView":2,"componentType":5126,"count":12,"max":[100,400],"min":[0.25,0.026785731315612793],"type":"VEC2"},{"bufferView":3,"componentType":5126,"count":12,"max":[0,400],"min":[-1,0],"type":"VEC2"},{"bufferView":4,"componentType":5123,"count":18,"max":[11],"min":[0],"type":"SCALAR"}],"materials":[{"pbrMetallicRoughness":{"metallicFactor":0.5,"roughnessFactor":0.5,"baseColorTexture":{"index":0}},"alphaMode":"MASK","alphaCutoff":0.01}],"textures":[{"sampler":0,"source":0,"name":"texture_1"}],"samplers":[{"magFilter":9728,"minFilter":9728,"wrapS":33071,"wrapT":33071}],"images":[{"mimeType":"image/png","uri":"texture_1.png"}],"meshes":[{"primitives":[{"mode":4,"attributes":{"POSITION":0,"NORMAL":1,"TEXCOORD_0":2,"_UVANIMATION":3},"indices":4,"material":0}]}]}