mtllib material.mtl
o Default
v 0 -1.1102230246251565e-16 1
v 1 1.1102230246251565e-16 -5.551115123125783e-17
v 0 1.1102230246251565e-16 -5.551115123125783e-17
v 1 -1.1102230246251565e-16 1
vt 0.5 0.8482142686843872
vt 0.75 0.8571428656578064
vt 0.5 0.8571428656578064
vt 0.5 0.8482142686843872
vt 0.75 0.8482142686843872
vt 0.75 0.8571428656578064
vn 0 1 2.220446049250313e-16
vn 0 1 2.220446049250313e-16
vn 0 1 2.220446049250313e-16
vn 0 1 2.220446049250313e-16
vn 0 1 2.220446049250313e-16
vn 0 1 2.220446049250313e-16
g tile_indoors_rug
usemtl 1
f 1/1/1 2/2/2 3/3/3
f 1/4/4 4/5/5 2/6/6
