mtllib material.mtl
o Default
v 0 0 0
v 0 1 0.25
v 0 1.25 -0.25
v 0 0 0.5
v 0 -1.1102230246251565e-16 1
v 1 1.1102230246251565e-16 0
v 1 -1.1102230246251565e-16 1
v 1 1 -0.5
v 0 1 -0.5
v 1 2 -1
v 0 2 -1
v 1 1 0.25
v 1 0 0.5
v 1 1.25 -0.25
vt 0.75 0.8035714030265808
vt 1 0.8125
vt 0.75 0.8125
vt 0.75 0.8035714030265808
vt 1 0.8035714030265808
vt 1 0.8125
vt 0.5 0.8660714030265808
vt 0.75 0.875
vt 0.5 0.875
vt 0.5 0.8660714030265808
vt 0.75 0.8660714030265808
vt 0.75 0.875
vt 0.75 0.8482142686843872
vt 1 0.8571428656578064
vt 0.75 0.8571428656578064
vt 0.75 0.8482142686843872
vt 1 0.8482142686843872
vt 1 0.8571428656578064
vt 0.75 0.8482142686843872
vt 1 0.8571428656578064
vt 0.75 0.8571428656578064
vt 0.75 0.8482142686843872
vt 1 0.8482142686843872
vt 1 0.8571428656578064
vt 0.5 0.875
vt 0.75 0.8839285969734192
vt 0.5 0.8839285969734192
vt 0.5 0.875
vt 0.75 0.875
vt 0.75 0.8839285969734192
vt 0.5 0.8839285969734192
vt 0.75 0.8883928656578064
vt 0.5 0.8883928656578064
vt 0.5 0.8839285969734192
vt 0.75 0.8839285969734192
vt 0.75 0.8883928656578064
vt 0.75 0.8035714030265808
vt 1 0.8125
vt 0.75 0.8125
vt 0.75 0.8035714030265808
vt 1 0.8035714030265808
vt 1 0.8125
vn -1 0 0
vn -1 0 0
vn -1 0 0
vn -1 0 0
vn -1 0 0
vn -1 0 0
vn -1.1102230246251565e-16 1 1.1102230246251565e-16
vn -1.1102230246251565e-16 1 1.1102230246251565e-16
vn -1.1102230246251565e-16 1 1.1102230246251565e-16
vn 0 1 2.220446049250313e-16
vn 0 1 2.220446049250313e-16
vn 0 1 2.220446049250313e-16
vn 0 0.4472135954999579 0.8944271909999159
vn 0 0.4472135954999579 0.8944271909999159
vn 0 0.4472135954999579 0.8944271909999159
vn -4.9650683064945465e-17 0.447213595499958 0.8944271909999159
vn -4.9650683064945465e-17 0.447213595499958 0.8944271909999159
vn -4.9650683064945465e-17 0.447213595499958 0.8944271909999159
vn 0 0.4472135954999579 0.8944271909999159
vn 0 0.4472135954999579 0.8944271909999159
vn 0 0.4472135954999579 0.8944271909999159
vn 0 0.4472135954999579 0.8944271909999159
vn 0 0.4472135954999579 0.8944271909999159
vn 0 0.4472135954999579 0.8944271909999159
vn 0 0.24253562503633297 0.9701425001453319
vn 0 0.24253562503633297 0.9701425001453319
vn 0 0.24253562503633297 0.9701425001453319
vn 0 0.24253562503633297 0.9701425001453319
vn 0 0.24253562503633297 0.9701425001453319
vn 0 0.24253562503633297 0.9701425001453319
vn 0 0.8944271909999159 0.4472135954999579
vn 0 0.8944271909999159 0.4472135954999579
vn 0 0.8944271909999159 0.4472135954999579
vn 0 0.8944271909999159 0.4472135954999579
vn 0 0.8944271909999159 0.4472135954999579
vn 0 0.8944271909999159 0.4472135954999579
vn 1 0 0
vn 1 0 0
vn 1 0 0
vn 1 0 0
vn 1 0 0
vn 1 0 0
g tile_indoors_tv_2
usemtl 1
f 1/1/1 2/2/2 3/3/3
f 1/4/4 4/5/5 2/6/6
f 5/7/7 6/8/8 1/9/9
f 5/10/10 7/11/11 6/12/12
f 1/13/13 8/14/14 9/15/15
f 1/16/16 6/17/17 8/18/18
f 9/19/19 10/20/20 11/21/21
f 9/22/22 8/23/23 10/24/24
f 4/25/25 12/26/26 2/27/27
f 4/28/28 13/29/29 12/30/30
f 2/31/31 14/32/32 3/33/33
f 2/34/34 12/35/35 14/36/36
f 13/37/37 14/38/38 12/39/39
f 13/40/40 6/41/41 14/42/42
