mtllib material.mtl
o Default
v 0 -1.1102230246251565e-16 1
v 1 1.1102230246251565e-16 0
v 0 1.1102230246251565e-16 0
v 1 -1.1102230246251565e-16 1
v 1 2 -0.5
v 0 2 -0.5
vt 0.5 0.9910714030265808
vt 0.75 1
vt 0.5 1
vt 0.5 0.9910714030265808
vt 0.75 0.9910714030265808
vt 0.75 1
vt 0 0.9642857313156128
vt 0.25 0.9821428656578064
vt 0 0.9821428656578064
vt 0 0.9642857313156128
vt 0.25 0.9642857313156128
vt 0.25 0.9821428656578064
vn 0 1 2.220446049250313e-16
vn 0 1 2.220446049250313e-16
vn 0 1 2.220446049250313e-16
vn 0 1 2.220446049250313e-16
vn 0 1 2.220446049250313e-16
vn 0 1 2.220446049250313e-16
vn 0 0.6000000000000001 0.8
vn 0 0.6000000000000001 0.8
vn 0 0.6000000000000001 0.8
vn -3.33066907387547e-17 0.6000000000000001 0.8
vn -3.33066907387547e-17 0.6000000000000001 0.8
vn -3.33066907387547e-17 0.6000000000000001 0.8
g tile_tree_1
usemtl 1
f 1/1/1 2/2/2 3/3/3
f 1/4/4 4/5/5 2/6/6
f 1/7/7 5/8/8 6/9/9
f 1/10/10 4/11/11 5/12/12
