mtllib material.mtl
o Default
v 0 -1.1102230246251565e-16 1
v 1 1.1102230246251565e-16 0
v 0 1.1102230246251565e-16 0
v 1 -1.1102230246251565e-16 1
v 0 -0.25 1
v 1 0.5 0.5
v 0 0.5 0.5
v 1 -0.25 1
v 1 0.5 -0.5
v 0 0.5 -0.5
vt 0.5 0.8660714030265808
vt 0.75 0.875
vt 0.5 0.875
vt 0.5 0.8660714030265808
vt 0.75 0.8660714030265808
vt 0.75 0.875
vt 0.75 0.8616071343421936
vt 1 0.8660714030265808
vt 0.75 0.8660714030265808
vt 0.75 0.8616071343421936
vt 1 0.8616071343421936
vt 1 0.8660714030265808
vt 0.25 0.8482142686843872
vt 0.5 0.8571428656578064
vt 0.25 0.8571428656578064
vt 0.25 0.8482142686843872
vt 0.5 0.8482142686843872
vt 0.5 0.8571428656578064
vn 0 1 2.220446049250313e-16
vn 0 1 2.220446049250313e-16
vn 0 1 2.220446049250313e-16
vn 0 1 2.220446049250313e-16
vn 0 1 2.220446049250313e-16
vn 0 1 2.220446049250313e-16
vn 0 0.5547001962252291 0.8320502943378437
vn 0 0.5547001962252291 0.8320502943378437
vn 0 0.5547001962252291 0.8320502943378437
vn 0 0.5547001962252291 0.8320502943378437
vn 0 0.5547001962252291 0.8320502943378437
vn 0 0.5547001962252291 0.8320502943378437
vn 0 1 0
vn 0 1 0
vn 0 1 0
vn 0 1 0
vn 0 1 0
vn 0 1 0
g tile_indoors_table_4
usemtl 1
f 1/1/1 2/2/2 3/3/3
f 1/4/4 4/5/5 2/6/6
f 5/7/7 6/8/8 7/9/9
f 5/10/10 8/11/11 6/12/12
f 7/13/13 9/14/14 10/15/15
f 7/16/16 6/17/17 9/18/18
