mtllib material.mtl
o Default
v 1 -5.551115123125783e-17 0
v 0 1 -0.5
v 1 1 -0.5
v 0 -5.551115123125783e-17 0
v 0 2 -1
v 1 2 -1
v 1 0 1
v 1 1 0.5
v 1 2 0
v 0 2 -0.5
v 0.5 2 -1.5
v 0 2 -1.5
v 0.5 2 -0.5
v 1.5 2 -1.5
v 1.5 2 -0.5
v 0.5 2 0
v 1.5 2 0
v 0 2 0
vt 0 0.9196428656578064
vt 0.25 0.9285714030265808
vt 0 0.9285714030265808
vt 0 0.9196428656578064
vt 0.25 0.9196428656578064
vt 0.25 0.9285714030265808
vt 0 0.9285714030265808
vt 0.25 0.9375
vt 0 0.9375
vt 0 0.9285714030265808
vt 0.25 0.9285714030265808
vt 0.25 0.9375
vt 0.75 0.9196428656578064
vt 1 0.9285714030265808
vt 0.75 0.9285714030265808
vt 0.75 0.9196428656578064
vt 1 0.9196428656578064
vt 1 0.9285714030265808
vt 0.75 0.9285714030265808
vt 1 0.9375
vt 0.75 0.9375
vt 0.75 0.9285714030265808
vt 1 0.9285714030265808
vt 1 0.9375
vt 0.375 0.9017857313156128
vt 0.5 0.9107142686843872
vt 0.375 0.9107142686843872
vt 0.375 0.9017857313156128
vt 0.5 0.9017857313156128
vt 0.5 0.9107142686843872
vt 0.5 0.9017857313156128
vt 0.75 0.9107142686843872
vt 0.5 0.9107142686843872
vt 0.5 0.9017857313156128
vt 0.75 0.9017857313156128
vt 0.75 0.9107142686843872
vt 0.75 0.90625
vt 1 0.9107142686843872
vt 0.75 0.9107142686843872
vt 0.75 0.90625
vt 1 0.90625
vt 1 0.9107142686843872
vt 0.875 0.9151785373687744
vt 1 0.9196428656578064
vt 0.875 0.9196428656578064
vt 0.875 0.9151785373687744
vt 1 0.9151785373687744
vt 1 0.9196428656578064
vn 0 -0.4472135954999579 -0.8944271909999159
vn 0 -0.4472135954999579 -0.8944271909999159
vn 0 -0.4472135954999579 -0.8944271909999159
vn 0 -0.4472135954999579 -0.8944271909999159
vn 0 -0.4472135954999579 -0.8944271909999159
vn 0 -0.4472135954999579 -0.8944271909999159
vn 0 -0.4472135954999579 -0.8944271909999159
vn 0 -0.4472135954999579 -0.8944271909999159
vn 0 -0.4472135954999579 -0.8944271909999159
vn 0 -0.4472135954999579 -0.8944271909999159
vn 0 -0.4472135954999579 -0.8944271909999159
vn 0 -0.4472135954999579 -0.8944271909999159
vn 1 0 0
vn 1 0 0
vn 1 0 0
vn 1 0 0
vn 1 0 0
vn 1 0 0
vn 1 0 0
vn 1 0 0
vn 1 0 0
vn 1 0 0
vn 1 0 0
vn 1 0 0
vn 0 1 0
vn 0 1 0
vn 0 1 0
vn 0 1 0
vn 0 1 0
vn 0 1 0
vn 0 1 0
vn 0 1 0
vn 0 1 0
vn 0 1 0
vn 0 1 0
vn 0 1 0
vn 0 1 0
vn 0 1 0
vn 0 1 0
vn 0 1 0
vn 0 1 0
vn 0 1 0
vn 0 1 0
vn 0 1 0
vn 0 1 0
vn 0 1 0
vn 0 1 0
vn 0 1 0
g tile_lab_3
usemtl 1
f 1/1/1 2/2/2 3/3/3
f 1/4/4 4/5/5 2/6/6
f 3/7/7 5/8/8 6/9/9
f 3/10/10 2/11/11 5/12/12
f 7/13/13 3/14/14 8/15/15
f 7/16/16 1/17/17 3/18/18
f 8/19/19 6/20/20 9/21/21
f 8/22/22 3/23/23 6/24/24
f 10/25/25 11/26/26 12/27/27
f 10/28/28 13/29/29 11/30/30
f 13/31/31 14/32/32 11/33/33
f 13/34/34 15/35/35 14/36/36
f 16/37/37 15/38/38 13/39/39
f 16/40/40 17/41/41 15/42/42
f 18/43/43 13/44/44 10/45/45
f 18/46/46 16/47/47 13/48/48
