mtllib material.mtl
o Default
v 0 0 0
v 0 0.75 1
v 0 0.75 -0.25
v 0 0 1.5
v 0 -1.1102230246251565e-16 1
v 1 0 0
v 1 -1.1102230246251565e-16 1
v 0 0.75 0.25
v 1 0.75 -0.25
v 1 0.75 0.25
v 1 1.25 -0.5
v 0 1.25 -0.5
v 0 1 -0.5
v 1 2 -1
v 0 2 -1
v 1 1 -0.5
v 1 0.75 1
v 0 1 0.5
v 0 2 0
vt 0.75 0.8035714030265808
vt 1 0.8125
vt 0.75 0.8125
vt 0.75 0.8035714030265808
vt 1 0.8035714030265808
vt 1 0.8125
vt 0.25 0.75
vt 0.5 0.7589285969734192
vt 0.25 0.7589285969734192
vt 0.25 0.75
vt 0.5 0.75
vt 0.5 0.7589285969734192
vt 0 0.7321428656578064
vt 0.25 0.7366071343421936
vt 0 0.7366071343421936
vt 0 0.7321428656578064
vt 0.25 0.7321428656578064
vt 0.25 0.7366071343421936
vt 0 0.7366071343421936
vt 0.25 0.7410714030265808
vt 0 0.7410714030265808
vt 0 0.7366071343421936
vt 0.25 0.7366071343421936
vt 0.25 0.7410714030265808
vt 0.25 0.7589285969734192
vt 0.5 0.7678571343421936
vt 0.25 0.7678571343421936
vt 0.25 0.7589285969734192
vt 0.5 0.7589285969734192
vt 0.5 0.7678571343421936
vt 0.75 0.75
vt 1 0.7589285969734192
vt 0.75 0.7589285969734192
vt 0.75 0.75
vt 1 0.75
vt 1 0.7589285969734192
vt 0 0.7276785373687744
vt 0.25 0.7321428656578064
vt 0 0.7321428656578064
vt 0 0.7276785373687744
vt 0.25 0.7276785373687744
vt 0.25 0.7321428656578064
vt 0.75 0.75
vt 1 0.7589285969734192
vt 0.75 0.7589285969734192
vt 0.75 0.75
vt 1 0.75
vt 1 0.7589285969734192
vt 0.25 0.7589285969734192
vt 0.5 0.7678571343421936
vt 0.25 0.7678571343421936
vt 0.25 0.7589285969734192
vt 0.5 0.7589285969734192
vt 0.5 0.7678571343421936
vn -1 0 0
vn -1 0 0
vn -1 0 0
vn -1 0 0
vn -1 0 0
vn -1 0 0
vn 0 1 1.1102230246251565e-16
vn 0 1 1.1102230246251565e-16
vn 0 1 1.1102230246251565e-16
vn 0 1 1.1102230246251565e-16
vn 0 1 1.1102230246251565e-16
vn 0 1 1.1102230246251565e-16
vn 0 1 0
vn 0 1 0
vn 0 1 0
vn 0 1 0
vn 0 1 0
vn 0 1 0
vn 0 0.4472135954999579 0.8944271909999159
vn 0 0.4472135954999579 0.8944271909999159
vn 0 0.4472135954999579 0.8944271909999159
vn 0 0.4472135954999579 0.8944271909999159
vn 0 0.4472135954999579 0.8944271909999159
vn 0 0.4472135954999579 0.8944271909999159
vn 0 0.4472135954999579 0.8944271909999159
vn 0 0.4472135954999579 0.8944271909999159
vn 0 0.4472135954999579 0.8944271909999159
vn 0 0.4472135954999579 0.8944271909999159
vn 0 0.4472135954999579 0.8944271909999159
vn 0 0.4472135954999579 0.8944271909999159
vn 0 0.4472135954999579 0.8944271909999159
vn 0 0.4472135954999579 0.8944271909999159
vn 0 0.4472135954999579 0.8944271909999159
vn 0 0.4472135954999579 0.8944271909999159
vn 0 0.4472135954999579 0.8944271909999159
vn 0 0.4472135954999579 0.8944271909999159
vn 0 1 0
vn 0 1 0
vn 0 1 0
vn 0 1 0
vn 0 1 0
vn 0 1 0
vn 1 0 0
vn 1 0 0
vn 1 0 0
vn 1 0 0
vn 1 0 0
vn 1 0 0
vn 1 0 0
vn 1 0 0
vn 1 0 0
vn 1 0 0
vn 1 0 0
vn 1 0 0
g tile_healer_1
usemtl 1
f 1/1/1 2/2/2 3/3/3
f 1/4/4 4/5/5 2/6/6
f 5/7/7 6/8/8 1/9/9
f 5/10/10 7/11/11 6/12/12
f 8/13/13 9/14/14 3/15/15
f 8/16/16 10/17/17 9/18/18
f 3/19/19 11/20/20 12/21/21
f 3/22/22 9/23/23 11/24/24
f 13/25/25 14/26/26 15/27/27
f 13/28/28 16/29/29 14/30/30
f 1/31/31 16/32/32 13/33/33
f 1/34/34 6/35/35 16/36/36
f 2/37/37 10/38/38 8/39/39
f 2/40/40 17/41/41 10/42/42
f 5/43/43 13/44/44 18/45/45
f 5/46/46 1/47/47 13/48/48
f 18/49/49 15/50/50 19/51/51
f 18/52/52 13/53/53 15/54/54
