mtllib material.mtl
o Default
v 1 0 -1
v 1 1 -0.5
v 1 1 -1.5
v 1 0 0
v 1 -1 -0.5
v 1 -1 0.5
v 1 1 0.5
v 1 0 1
v 1 2 0
v 1 2 -1
v 0 5.551115123125783e-17 0
v 1 0.5 -1
v 0 0.5 -1
v 0 0 1
v 0 1 -1.5
v 0 1 -0.5
v 0 0 -1
v 0 2 -1
v 0 -1 0.5
v 0 -1 -0.5
v 0 2 -2
v 1 2 -2
v -1 2 -1
v -1 2 -2
v 2 2 -2
v 2 2 -1
vt 0.75 0.8482142686843872
vt 1 0.8571428656578064
vt 0.75 0.8571428656578064
vt 0.75 0.8482142686843872
vt 1 0.8482142686843872
vt 1 0.8571428656578064
vt 0.75 0.8482142686843872
vt 1 0.8571428656578064
vt 0.75 0.8571428656578064
vt 0.75 0.8482142686843872
vt 1 0.8482142686843872
vt 1 0.8571428656578064
vt 0.75 0.8482142686843872
vt 1 0.8571428656578064
vt 0.75 0.8571428656578064
vt 0.75 0.8482142686843872
vt 1 0.8482142686843872
vt 1 0.8571428656578064
vt 0.75 0.8482142686843872
vt 1 0.8571428656578064
vt 0.75 0.8571428656578064
vt 0.75 0.8482142686843872
vt 1 0.8482142686843872
vt 1 0.8571428656578064
vt 0 0.8839285969734192
vt 0.25 0.8928571343421936
vt 0 0.8928571343421936
vt 0 0.8839285969734192
vt 0.25 0.8839285969734192
vt 0.25 0.8928571343421936
vt 0.5 0.8660714030265808
vt 0.75 0.875
vt 0.5 0.875
vt 0.5 0.8660714030265808
vt 0.75 0.8660714030265808
vt 0.75 0.875
vt 0.75 0.8482142686843872
vt 1 0.8571428656578064
vt 0.75 0.8571428656578064
vt 0.75 0.8482142686843872
vt 1 0.8482142686843872
vt 1 0.8571428656578064
vt 0.75 0.8482142686843872
vt 1 0.8571428656578064
vt 0.75 0.8571428656578064
vt 0.75 0.8482142686843872
vt 1 0.8482142686843872
vt 1 0.8571428656578064
vt 0.75 0.8482142686843872
vt 1 0.8571428656578064
vt 0.75 0.8571428656578064
vt 0.75 0.8482142686843872
vt 1 0.8482142686843872
vt 1 0.8571428656578064
vt 0.75 0.8125
vt 1 0.8035714030265808
vt 0.75 0.8035714030265808
vt 0.75 0.8125
vt 1 0.8125
vt 1 0.8035714030265808
vt 0.75 0.8125
vt 1 0.8035714030265808
vt 0.75 0.8035714030265808
vt 0.75 0.8125
vt 1 0.8125
vt 1 0.8035714030265808
vt 0.75 0.8125
vt 1 0.8035714030265808
vt 0.75 0.8035714030265808
vt 0.75 0.8125
vt 1 0.8125
vt 1 0.8035714030265808
vn -1 0 0
vn -1 0 0
vn -1 0 0
vn -1 0 0
vn -1 0 0
vn -1 0 0
vn -1 0 0
vn -1 0 0
vn -1 0 0
vn -1 0 0
vn -1 0 0
vn -1 0 0
vn -1 0 0
vn -1 0 0
vn -1 0 0
vn -1 0 0
vn -1 0 0
vn -1 0 0
vn -1 0 0
vn -1 0 0
vn -1 0 0
vn -1 0 0
vn -1 0 0
vn -1 0 0
vn 0 0.8944271909999159 0.44721359549995787
vn 0 0.8944271909999159 0.44721359549995787
vn 0 0.8944271909999159 0.44721359549995787
vn 4.965068306494546e-17 0.8944271909999159 0.4472135954999579
vn 4.965068306494546e-17 0.8944271909999159 0.4472135954999579
vn 4.965068306494546e-17 0.8944271909999159 0.4472135954999579
vn 5.551115123125783e-17 1 5.551115123125783e-17
vn 5.551115123125783e-17 1 5.551115123125783e-17
vn 5.551115123125783e-17 1 5.551115123125783e-17
vn 0 1 0
vn 0 1 0
vn 0 1 0
vn 1 0 0
vn 1 0 0
vn 1 0 0
vn 1 0 0
vn 1 0 0
vn 1 0 0
vn 0 0.4472135954999579 0.8944271909999159
vn 0 0.4472135954999579 0.8944271909999159
vn 0 0.4472135954999579 0.8944271909999159
vn 0 0.4472135954999579 0.8944271909999159
vn 0 0.4472135954999579 0.8944271909999159
vn 0 0.4472135954999579 0.8944271909999159
vn 1 0 0
vn 1 0 0
vn 1 0 0
vn 1 0 0
vn 1 0 0
vn 1 0 0
vn 0 1 0
vn 0 1 0
vn 0 1 0
vn 0 1 0
vn 0 1 0
vn 0 1 0
vn 0 1 0
vn 0 1 0
vn 0 1 0
vn 0 1 0
vn 0 1 0
vn 0 1 0
vn 0 1 0
vn 0 1 0
vn 0 1 0
vn 0 1 0
vn 0 1 0
vn 0 1 0
g tile_indoors_wall_5
usemtl 1
f 1/1/1 2/2/2 3/3/3
f 1/4/4 4/5/5 2/6/6
f 5/7/7 4/8/8 1/9/9
f 5/10/10 6/11/11 4/12/12
f 4/13/13 7/14/14 2/15/15
f 4/16/16 8/17/17 7/18/18
f 2/19/19 9/20/20 10/21/21
f 2/22/22 7/23/23 9/24/24
f 11/25/25 12/26/26 13/27/27
f 11/28/28 4/29/29 12/30/30
f 14/31/31 4/32/32 11/33/33
f 14/34/34 8/35/35 4/36/36
f 11/37/37 15/38/38 16/39/39
f 11/40/40 17/41/41 15/42/42
f 16/43/43 10/44/44 18/45/45
f 16/46/46 2/47/47 10/48/48
f 19/49/49 17/50/50 11/51/51
f 19/52/52 20/53/53 17/54/54
f 10/55/55 21/56/56 18/57/57
f 10/58/58 22/59/59 21/60/60
f 23/61/61 21/62/62 24/63/63
f 23/64/64 18/65/65 21/66/66
f 10/67/67 25/68/68 22/69/69
f 10/70/70 26/71/71 25/72/72
