mtllib material.mtl
o Default
v 0 0.5 0
v 0.25 1.5 -0.25
v 0.25 1.5 -0.75
v 0 1.25 0
v 1 1.25 0
v 0.75 1.5 -0.75
v 0.75 1.5 -0.25
v 1 0.5 0
v 0 1.5 -0.25
v 1 1.5 -0.75
v 0 1.5 -0.75
v 1 1.5 -0.25
v 0 0.75 0
v 1 0.75 0
v 0 0.5 0.5
v 1 0.5 0.5
v 0 -0.25 1
v 1 -0.25 1
v 0 1 -0.5
v 1 2 -1
v 0 2 -1
v 1 1 -0.5
v 0 0 0
v 1 0 0
v 0 -1.1102230246251565e-16 1
v 1 -1.1102230246251565e-16 1
v 1 0.5 -0.5
v 0 0.5 -0.5
vt 0.75 0.8035714030265808
vt 1 0.8125
vt 0.75 0.8125
vt 0.75 0.8035714030265808
vt 1 0.8035714030265808
vt 1 0.8125
vt 0.75 0.8035714030265808
vt 1 0.8125
vt 0.75 0.8125
vt 0.75 0.8035714030265808
vt 1 0.8035714030265808
vt 1 0.8125
vt 0 0.8415178656578064
vt 0.25 0.84375
vt 0 0.84375
vt 0 0.8415178656578064
vt 0.25 0.8415178656578064
vt 0.25 0.84375
vt 0 0.8392857313156128
vt 0.25 0.8415178656578064
vt 0 0.8415178656578064
vt 0 0.8392857313156128
vt 0.25 0.8392857313156128
vt 0.25 0.8415178656578064
vt 0 0.8348214030265808
vt 0.25 0.8392857313156128
vt 0 0.8392857313156128
vt 0 0.8348214030265808
vt 0.25 0.8348214030265808
vt 0.25 0.8392857313156128
vt 0 0.8303571343421936
vt 0.25 0.8348214626312256
vt 0 0.8348214626312256
vt 0 0.8303571343421936
vt 0.25 0.8303571343421936
vt 0.25 0.8348214626312256
vt 0.5 0.8616071343421936
vt 0.75 0.8660714030265808
vt 0.5 0.8660714030265808
vt 0.5 0.8616071343421936
vt 0.75 0.8616071343421936
vt 0.75 0.8660714030265808
vt 0.75 0.8482142686843872
vt 1 0.8571428656578064
vt 0.75 0.8571428656578064
vt 0.75 0.8482142686843872
vt 1 0.8482142686843872
vt 1 0.8571428656578064
vt 0.75 0.8482142686843872
vt 1 0.8571428656578064
vt 0.75 0.8571428656578064
vt 0.75 0.8482142686843872
vt 1 0.8482142686843872
vt 1 0.8571428656578064
vt 0.5 0.8660714030265808
vt 0.75 0.875
vt 0.5 0.875
vt 0.5 0.8660714030265808
vt 0.75 0.8660714030265808
vt 0.75 0.875
vt 0 0.8482142686843872
vt 0.25 0.8571428656578064
vt 0 0.8571428656578064
vt 0 0.8482142686843872
vt 0.25 0.8482142686843872
vt 0.25 0.8571428656578064
vn -0.9701425001453319 0.24253562503633297 0
vn -0.9701425001453319 0.24253562503633297 0
vn -0.9701425001453319 0.24253562503633297 0
vn -0.7071067811865476 0 -0.7071067811865476
vn -0.7071067811865476 0 -0.7071067811865476
vn -0.7071067811865476 0 -0.7071067811865476
vn 0.7071067811865475 0.7071067811865475 0
vn 0.7071067811865475 0.7071067811865475 0
vn 0.7071067811865475 0.7071067811865475 0
vn 0.9486832980505138 0 -0.31622776601683794
vn 0.9486832980505138 0 -0.31622776601683794
vn 0.9486832980505138 0 -0.31622776601683794
vn 0 1 0
vn 0 1 0
vn 0 1 0
vn 0 1 0
vn 0 1 0
vn 0 1 0
vn 0 0.7071067811865475 0.7071067811865475
vn 0 0.7071067811865475 0.7071067811865475
vn 0 0.7071067811865475 0.7071067811865475
vn 0 0.7071067811865475 0.7071067811865475
vn 0 0.7071067811865475 0.7071067811865475
vn 0 0.7071067811865475 0.7071067811865475
vn 0 0 1
vn 0 0 1
vn 0 0 1
vn 0 0 1
vn 0 0 1
vn 0 0 1
vn 0 0.8944271909999159 0.4472135954999579
vn 0 0.8944271909999159 0.4472135954999579
vn 0 0.8944271909999159 0.4472135954999579
vn 0 0.8944271909999159 0.4472135954999579
vn 0 0.8944271909999159 0.4472135954999579
vn 0 0.8944271909999159 0.4472135954999579
vn 0 0.5547001962252291 0.8320502943378437
vn 0 0.5547001962252291 0.8320502943378437
vn 0 0.5547001962252291 0.8320502943378437
vn 0 0.5547001962252291 0.8320502943378437
vn 0 0.5547001962252291 0.8320502943378437
vn 0 0.5547001962252291 0.8320502943378437
vn 0 0.4472135954999579 0.8944271909999159
vn 0 0.4472135954999579 0.8944271909999159
vn 0 0.4472135954999579 0.8944271909999159
vn 0 0.4472135954999579 0.8944271909999159
vn 0 0.4472135954999579 0.8944271909999159
vn 0 0.4472135954999579 0.8944271909999159
vn 0 0.4472135954999579 0.8944271909999159
vn 0 0.4472135954999579 0.8944271909999159
vn 0 0.4472135954999579 0.8944271909999159
vn 0 0.4472135954999579 0.8944271909999159
vn 0 0.4472135954999579 0.8944271909999159
vn 0 0.4472135954999579 0.8944271909999159
vn 0 1 1.1102230246251565e-16
vn 0 1 1.1102230246251565e-16
vn 0 1 1.1102230246251565e-16
vn 0 1 1.1102230246251565e-16
vn 0 1 1.1102230246251565e-16
vn 0 1 1.1102230246251565e-16
vn 0 1 0
vn 0 1 0
vn 0 1 0
vn 0 1 0
vn 0 1 0
vn 0 1 0
g tile_indoors_computer_1
usemtl 1
f 1/1/1 2/2/2 3/3/3
f 1/4/4 4/5/5 2/6/6
f 5/7/7 6/8/8 7/9/9
f 5/10/10 8/11/11 6/12/12
f 9/13/13 10/14/14 11/15/15
f 9/16/16 12/17/17 10/18/18
f 4/19/19 12/20/20 9/21/21
f 4/22/22 5/23/23 12/24/24
f 13/25/25 5/26/26 4/27/27
f 13/28/28 14/29/29 5/30/30
f 15/31/31 14/32/32 13/33/33
f 15/34/34 16/35/35 14/36/36
f 17/37/37 16/38/38 15/39/39
f 17/40/40 18/41/41 16/42/42
f 19/43/43 20/44/44 21/45/45
f 19/46/46 22/47/47 20/48/48
f 23/49/49 22/50/50 19/51/51
f 23/52/52 24/53/53 22/54/54
f 25/55/55 24/56/56 23/57/57
f 25/58/58 26/59/59 24/60/60
f 15/61/61 27/62/62 28/63/63
f 15/64/64 16/65/65 27/66/66
