mtllib material.mtl
o Default
v 0 0.5 0.5
v 1 0.5 -0.5
v 0 0.5 -0.5
v 1 0.5 0.5
v 0 -0.25 1
v 1 -0.25 1
v 0 -1.1102230246251565e-16 1
v 1 0 0
v 0 0 0
v 1 -1.1102230246251565e-16 1
v 0 1 -0.5
v 1 2 -1
v 0 2 -1
v 1 1 -0.5
vt 0.25 0.8482142686843872
vt 0.5 0.8571428656578064
vt 0.25 0.8571428656578064
vt 0.25 0.8482142686843872
vt 0.5 0.8482142686843872
vt 0.5 0.8571428656578064
vt 0.75 0.8616071343421936
vt 1 0.8660714030265808
vt 0.75 0.8660714030265808
vt 0.75 0.8616071343421936
vt 1 0.8616071343421936
vt 1 0.8660714030265808
vt 0.5 0.8660714030265808
vt 0.75 0.875
vt 0.5 0.875
vt 0.5 0.8660714030265808
vt 0.75 0.8660714030265808
vt 0.75 0.875
vt 0 0.7589285969734192
vt 0.25 0.7678571343421936
vt 0 0.7678571343421936
vt 0 0.7589285969734192
vt 0.25 0.7589285969734192
vt 0.25 0.7678571343421936
vt 0.75 0.8482142686843872
vt 1 0.8571428656578064
vt 0.75 0.8571428656578064
vt 0.75 0.8482142686843872
vt 1 0.8482142686843872
vt 1 0.8571428656578064
vn 0 1 0
vn 0 1 0
vn 0 1 0
vn 0 1 0
vn 0 1 0
vn 0 1 0
vn 0 0.5547001962252291 0.8320502943378437
vn 0 0.5547001962252291 0.8320502943378437
vn 0 0.5547001962252291 0.8320502943378437
vn 0 0.5547001962252291 0.8320502943378437
vn 0 0.5547001962252291 0.8320502943378437
vn 0 0.5547001962252291 0.8320502943378437
vn 0 1 1.1102230246251565e-16
vn 0 1 1.1102230246251565e-16
vn 0 1 1.1102230246251565e-16
vn 0 1 1.1102230246251565e-16
vn 0 1 1.1102230246251565e-16
vn 0 1 1.1102230246251565e-16
vn 0 0.4472135954999579 0.8944271909999159
vn 0 0.4472135954999579 0.8944271909999159
vn 0 0.4472135954999579 0.8944271909999159
vn 0 0.4472135954999579 0.8944271909999159
vn 0 0.4472135954999579 0.8944271909999159
vn 0 0.4472135954999579 0.8944271909999159
vn 0 0.4472135954999579 0.8944271909999159
vn 0 0.4472135954999579 0.8944271909999159
vn 0 0.4472135954999579 0.8944271909999159
vn 0 0.4472135954999579 0.8944271909999159
vn 0 0.4472135954999579 0.8944271909999159
vn 0 0.4472135954999579 0.8944271909999159
g tile_indoors_desk_2
usemtl 1
f 1/1/1 2/2/2 3/3/3
f 1/4/4 4/5/5 2/6/6
f 5/7/7 4/8/8 1/9/9
f 5/10/10 6/11/11 4/12/12
f 7/13/13 8/14/14 9/15/15
f 7/16/16 10/17/17 8/18/18
f 11/19/19 12/20/20 13/21/21
f 11/22/22 14/23/23 12/24/24
f 9/25/25 14/26/26 11/27/27
f 9/28/28 8/29/29 14/30/30
